<svg width="116" height="20" viewBox="0 0 116 20" fill="none" xmlns="http://www.w3.org/2000/svg">
<path d="M20.7545 19.3716H27.3977C31.1604 19.3716 33.6505 16.8264 33.6505 13.4761V0H29.0298V13.4761C29.0298 14.4465 28.2821 15.1656 27.3977 15.1656H20.7545C19.8701 15.1656 19.151 14.4465 19.151 13.4761V0H14.5017V13.4761C14.5017 14.4465 13.7805 15.1656 12.896 15.1656H6.25502C5.36838 15.1656 4.62069 14.4465 4.62069 13.4761V0H0V13.4761C0 16.8264 2.4901 19.3716 6.25502 19.3716H12.896C14.4465 19.3716 15.8008 18.9283 16.8264 18.1806C17.8498 18.9283 19.2062 19.3716 20.7545 19.3716Z" fill="#4479FB"/>
<path d="M42.1144 11.7624H56.4771V13.4761C56.4771 14.4465 55.7294 15.1656 54.8428 15.1656H35.8594V19.3716H54.8428C58.6077 19.3716 61.0978 16.8264 61.0978 13.4761V0H56.4771V7.55411H42.1144C41.2278 7.55411 40.4801 6.86376 40.4801 5.89551V0H35.8594V5.89551C35.8594 9.21491 38.3495 11.7624 42.1144 11.7624Z" fill="#4479FB"/>
<path d="M69.5675 19.3716H88.5509V15.1656H69.5675C68.6809 15.1656 67.9332 14.4465 67.9332 13.4761V0H63.3125V13.6988C63.3125 16.8264 65.8026 19.3716 69.5675 19.3716Z" fill="#4479FB"/>
<path d="M90.7617 19.3716H109.745C113.51 19.3716 116 16.8264 116 13.4761V5.89551C116 2.54524 113.51 0 109.745 0H90.7617V19.3716ZM95.3824 15.1656V4.20604H109.745C110.632 4.20604 111.379 4.92506 111.379 5.89551V13.4761C111.379 14.4465 110.632 15.1656 109.745 15.1656H95.3824Z" fill="#4479FB"/>
</svg>
